<svg width="1447" height="985" viewBox="0 0 1447 985" fill="none" xmlns="http://www.w3.org/2000/svg">
<g filter="url(#filter0_f_1_2219)">
<g filter="url(#filter1_d_1_2219)">
<path d="M499.695 911.771C511.633 911.473 521.069 901.554 520.771 889.616C520.473 877.678 510.554 868.242 498.616 868.54C486.678 868.838 477.242 878.757 477.54 890.695C477.838 902.633 487.757 912.069 499.695 911.771Z" fill="white"/>
</g>
<g filter="url(#filter2_d_1_2219)">
<path d="M206.695 689.771C218.633 689.473 228.069 679.554 227.771 667.616C227.473 655.678 217.554 646.242 205.616 646.54C193.678 646.838 184.242 656.757 184.54 668.695C184.838 680.633 194.757 690.069 206.695 689.771Z" fill="white"/>
</g>
<path d="M378.695 476.771C390.633 476.473 400.069 466.554 399.771 454.616C399.473 442.678 389.554 433.242 377.616 433.54C365.678 433.838 356.242 443.757 356.54 455.695C356.838 467.633 366.757 477.069 378.695 476.771Z" fill="white"/>
<path d="M550.695 263.771C562.633 263.473 572.069 253.554 571.771 241.616C571.473 229.678 561.554 220.242 549.616 220.54C537.678 220.838 528.242 230.757 528.54 242.695C528.838 254.633 538.757 264.069 550.695 263.771Z" fill="white"/>
<path d="M110.695 77.7714C122.633 77.4734 132.069 67.5541 131.771 55.6159C131.473 43.6778 121.554 34.2416 109.616 34.5396C97.6778 34.8376 88.2416 44.757 88.5396 56.6951C88.8376 68.6333 98.757 78.0694 110.695 77.7714Z" fill="white"/>
<path d="M983.695 440.771C995.633 440.473 1005.07 430.554 1004.77 418.616C1004.47 406.678 994.554 397.242 982.616 397.54C970.678 397.838 961.242 407.757 961.54 419.695C961.838 431.633 971.757 441.069 983.695 440.771Z" fill="white"/>
<path d="M1413.7 554.771C1425.63 554.473 1435.07 544.554 1434.77 532.616C1434.47 520.678 1424.55 511.242 1412.62 511.54C1400.68 511.838 1391.24 521.757 1391.54 533.695C1391.84 545.633 1401.76 555.069 1413.7 554.771Z" fill="white"/>
<path d="M942.789 688.255C948.99 688.1 953.891 682.948 953.736 676.747C953.581 670.546 948.429 665.644 942.228 665.799C936.027 665.954 931.125 671.106 931.28 677.307C931.435 683.508 936.588 688.41 942.789 688.255Z" fill="white"/>
<path d="M711.789 861.736C717.99 861.581 722.891 856.429 722.736 850.228C722.581 844.027 717.429 839.125 711.228 839.28C705.027 839.435 700.125 844.588 700.28 850.789C700.435 856.99 705.588 861.891 711.789 861.736Z" fill="white"/>
<path d="M23.7886 707.736C29.9896 707.581 34.8911 702.429 34.7363 696.228C34.5815 690.027 29.4291 685.125 23.228 685.28C17.027 685.435 12.1255 690.588 12.2803 696.789C12.4351 702.99 17.5875 707.891 23.7886 707.736Z" fill="white"/>
<path d="M723.789 130.736C729.99 130.581 734.891 125.429 734.736 119.228C734.581 113.027 729.429 108.125 723.228 108.28C717.027 108.435 712.125 113.588 712.28 119.789C712.435 125.99 717.588 130.891 723.789 130.736Z" fill="white"/>
<path d="M476.789 953.736C482.99 953.581 487.891 948.429 487.736 942.228C487.581 936.027 482.429 931.125 476.228 931.28C470.027 931.435 465.125 936.588 465.28 942.789C465.435 948.99 470.588 953.891 476.789 953.736Z" fill="white"/>
<path d="M1170.05 804C1168.14 821.365 1166.27 823.135 1149 826.149C1166.37 828.062 1168.13 829.928 1171.15 847.197C1173.06 829.785 1174.93 827.823 1192.2 825.049C1174.78 823.135 1172.82 821.269 1170.05 804Z" fill="white"/>
<path d="M405.049 623C403.135 640.365 401.269 642.135 384 645.149C401.365 647.062 403.135 648.928 406.149 666.197C408.062 648.785 409.928 646.823 427.197 644.049C409.785 642.135 407.823 640.269 405.049 623Z" fill="white"/>
<path d="M498.049 12C496.135 29.3651 494.269 31.1351 477 34.1489C494.365 36.0624 496.135 37.928 499.149 55.1974C501.062 37.7845 502.928 35.8231 520.197 33.0486C502.785 31.135 500.823 29.2694 498.049 12Z" fill="white"/>
</g>
<g filter="url(#filter3_d_1_2219)">
<path d="M498.695 911.771C510.633 911.473 520.069 901.554 519.771 889.616C519.473 877.678 509.554 868.242 497.616 868.54C485.678 868.838 476.242 878.757 476.54 890.695C476.838 902.633 486.757 912.069 498.695 911.771Z" fill="white" fill-opacity="0.6" shape-rendering="crispEdges"/>
</g>
<g filter="url(#filter4_d_1_2219)">
<path d="M205.695 689.771C217.633 689.473 227.069 679.554 226.771 667.616C226.473 655.678 216.554 646.242 204.616 646.54C192.678 646.838 183.242 656.757 183.54 668.695C183.838 680.633 193.757 690.069 205.695 689.771Z" fill="white" fill-opacity="0.6" shape-rendering="crispEdges"/>
</g>
<path d="M377.695 476.771C389.633 476.473 399.069 466.554 398.771 454.616C398.473 442.678 388.554 433.242 376.616 433.54C364.678 433.838 355.242 443.757 355.54 455.695C355.838 467.633 365.757 477.069 377.695 476.771Z" fill="white" fill-opacity="0.6"/>
<path d="M549.695 263.771C561.633 263.473 571.069 253.554 570.771 241.616C570.473 229.678 560.554 220.242 548.616 220.54C536.678 220.838 527.242 230.757 527.54 242.695C527.838 254.633 537.757 264.069 549.695 263.771Z" fill="white" fill-opacity="0.6"/>
<path d="M109.695 77.7714C121.633 77.4734 131.069 67.5541 130.771 55.6159C130.473 43.6778 120.554 34.2416 108.616 34.5396C96.6778 34.8376 87.2416 44.757 87.5396 56.6951C87.8376 68.6333 97.757 78.0694 109.695 77.7714Z" fill="white" fill-opacity="0.6"/>
<path d="M982.695 440.771C994.633 440.473 1004.07 430.554 1003.77 418.616C1003.47 406.678 993.554 397.242 981.616 397.54C969.678 397.838 960.242 407.757 960.54 419.695C960.838 431.633 970.757 441.069 982.695 440.771Z" fill="white" fill-opacity="0.6"/>
<path d="M1412.7 554.771C1424.63 554.473 1434.07 544.554 1433.77 532.616C1433.47 520.678 1423.55 511.242 1411.62 511.54C1399.68 511.838 1390.24 521.757 1390.54 533.695C1390.84 545.633 1400.76 555.069 1412.7 554.771Z" fill="white" fill-opacity="0.6"/>
<path d="M941.789 688.255C947.99 688.1 952.891 682.948 952.736 676.747C952.581 670.546 947.429 665.644 941.228 665.799C935.027 665.954 930.125 671.106 930.28 677.307C930.435 683.508 935.588 688.41 941.789 688.255Z" fill="white" fill-opacity="0.6"/>
<path d="M710.789 861.736C716.99 861.581 721.891 856.429 721.736 850.228C721.581 844.027 716.429 839.125 710.228 839.28C704.027 839.435 699.125 844.588 699.28 850.789C699.435 856.99 704.588 861.891 710.789 861.736Z" fill="white" fill-opacity="0.6"/>
<path d="M22.7886 707.736C28.9896 707.581 33.8911 702.429 33.7363 696.228C33.5815 690.027 28.4291 685.125 22.228 685.28C16.027 685.435 11.1255 690.588 11.2803 696.789C11.4351 702.99 16.5875 707.891 22.7886 707.736Z" fill="white" fill-opacity="0.6"/>
<path d="M722.789 130.736C728.99 130.581 733.891 125.429 733.736 119.228C733.581 113.027 728.429 108.125 722.228 108.28C716.027 108.435 711.125 113.588 711.28 119.789C711.435 125.99 716.588 130.891 722.789 130.736Z" fill="white" fill-opacity="0.6"/>
<path d="M475.789 953.736C481.99 953.581 486.891 948.429 486.736 942.228C486.581 936.027 481.429 931.125 475.228 931.28C469.027 931.435 464.125 936.588 464.28 942.789C464.435 948.99 469.588 953.891 475.789 953.736Z" fill="white" fill-opacity="0.6"/>
<path d="M1169.05 804C1167.14 821.365 1165.27 823.135 1148 826.149C1165.37 828.062 1167.13 829.928 1170.15 847.197C1172.06 829.785 1173.93 827.823 1191.2 825.049C1173.78 823.135 1171.82 821.269 1169.05 804Z" fill="white" fill-opacity="0.6"/>
<path d="M404.049 623C402.135 640.365 400.269 642.135 383 645.149C400.365 647.062 402.135 648.928 405.149 666.197C407.062 648.785 408.928 646.823 426.197 644.049C408.785 642.135 406.823 640.269 404.049 623Z" fill="white" fill-opacity="0.6"/>
<path d="M497.049 12C495.135 29.3651 493.269 31.1351 476 34.1489C493.365 36.0624 495.135 37.928 498.149 55.1974C500.062 37.7845 501.928 35.8231 519.197 33.0486C501.785 31.135 499.823 29.2694 497.049 12Z" fill="white" fill-opacity="0.6"/>
<path opacity="0.5" d="M205.822 723.643C194.779 723.643 183.985 720.368 174.804 714.233C165.624 708.097 158.469 699.376 154.245 689.174C150.021 678.971 148.918 667.745 151.076 656.916C153.233 646.086 158.554 636.14 166.365 628.335C174.176 620.53 184.126 615.217 194.957 613.067C205.788 610.918 217.014 612.03 227.213 616.261C237.412 620.493 246.128 627.654 252.256 636.84C258.385 646.025 261.652 656.822 261.643 667.864C261.621 682.658 255.731 696.839 245.266 707.296C234.801 717.753 220.616 723.632 205.822 723.643ZM205.822 614.914C195.344 614.922 185.104 618.039 176.398 623.87C167.692 629.701 160.912 637.983 156.916 647.669C152.92 657.355 151.887 668.009 153.949 678.282C156.01 688.555 161.074 697.986 168.497 705.38C175.921 712.774 185.372 717.8 195.653 719.82C205.935 721.841 216.584 720.766 226.254 716.731C235.924 712.696 244.18 705.883 249.976 697.154C255.772 688.425 258.848 678.173 258.814 667.695C258.803 653.648 253.215 640.18 243.278 630.251C233.341 620.322 219.869 614.745 205.822 614.745V614.914Z" fill="#BA68C8"/>
<path d="M221.783 667.695C221.783 670.852 220.847 673.938 219.093 676.562C217.339 679.187 214.847 681.233 211.93 682.441C209.014 683.649 205.804 683.965 202.708 683.349C199.612 682.733 196.768 681.213 194.536 678.981C192.304 676.749 190.783 673.905 190.168 670.809C189.552 667.713 189.868 664.503 191.076 661.587C192.284 658.67 194.33 656.178 196.954 654.424C199.579 652.67 202.665 651.734 205.822 651.734C207.92 651.728 209.998 652.137 211.937 652.937C213.876 653.738 215.637 654.913 217.121 656.396C218.604 657.88 219.779 659.641 220.579 661.58C221.38 663.519 221.789 665.597 221.783 667.695Z" fill="white"/>
<defs>
<filter id="filter0_f_1_2219" x="0.276611" y="0" width="1446.5" height="965.74" filterUnits="userSpaceOnUse" color-interpolation-filters="sRGB">
<feFlood flood-opacity="0" result="BackgroundImageFix"/>
<feBlend mode="normal" in="SourceGraphic" in2="BackgroundImageFix" result="shape"/>
<feGaussianBlur stdDeviation="6" result="effect1_foregroundBlur_1_2219"/>
</filter>
<filter id="filter1_d_1_2219" x="405.533" y="809.533" width="175.246" height="175.246" filterUnits="userSpaceOnUse" color-interpolation-filters="sRGB">
<feFlood flood-opacity="0" result="BackgroundImageFix"/>
<feColorMatrix in="SourceAlpha" type="matrix" values="0 0 0 0 0 0 0 0 0 0 0 0 0 0 0 0 0 0 127 0" result="hardAlpha"/>
<feOffset dx="-6" dy="7"/>
<feGaussianBlur stdDeviation="33"/>
<feComposite in2="hardAlpha" operator="out"/>
<feColorMatrix type="matrix" values="0 0 0 0 0 0 0 0 0 0 0 0 0 0 0 0 0 0 0.25 0"/>
<feBlend mode="normal" in2="BackgroundImageFix" result="effect1_dropShadow_1_2219"/>
<feBlend mode="normal" in="SourceGraphic" in2="effect1_dropShadow_1_2219" result="shape"/>
</filter>
<filter id="filter2_d_1_2219" x="112.533" y="587.533" width="175.246" height="175.246" filterUnits="userSpaceOnUse" color-interpolation-filters="sRGB">
<feFlood flood-opacity="0" result="BackgroundImageFix"/>
<feColorMatrix in="SourceAlpha" type="matrix" values="0 0 0 0 0 0 0 0 0 0 0 0 0 0 0 0 0 0 127 0" result="hardAlpha"/>
<feOffset dx="-6" dy="7"/>
<feGaussianBlur stdDeviation="33"/>
<feComposite in2="hardAlpha" operator="out"/>
<feColorMatrix type="matrix" values="0 0 0 0 0 0 0 0 0 0 0 0 0 0 0 0 0 0 0.25 0"/>
<feBlend mode="normal" in2="BackgroundImageFix" result="effect1_dropShadow_1_2219"/>
<feBlend mode="normal" in="SourceGraphic" in2="effect1_dropShadow_1_2219" result="shape"/>
</filter>
<filter id="filter3_d_1_2219" x="404.533" y="809.533" width="175.246" height="175.246" filterUnits="userSpaceOnUse" color-interpolation-filters="sRGB">
<feFlood flood-opacity="0" result="BackgroundImageFix"/>
<feColorMatrix in="SourceAlpha" type="matrix" values="0 0 0 0 0 0 0 0 0 0 0 0 0 0 0 0 0 0 127 0" result="hardAlpha"/>
<feOffset dx="-6" dy="7"/>
<feGaussianBlur stdDeviation="33"/>
<feComposite in2="hardAlpha" operator="out"/>
<feColorMatrix type="matrix" values="0 0 0 0 0 0 0 0 0 0 0 0 0 0 0 0 0 0 0.25 0"/>
<feBlend mode="normal" in2="BackgroundImageFix" result="effect1_dropShadow_1_2219"/>
<feBlend mode="normal" in="SourceGraphic" in2="effect1_dropShadow_1_2219" result="shape"/>
</filter>
<filter id="filter4_d_1_2219" x="111.533" y="587.533" width="175.246" height="175.246" filterUnits="userSpaceOnUse" color-interpolation-filters="sRGB">
<feFlood flood-opacity="0" result="BackgroundImageFix"/>
<feColorMatrix in="SourceAlpha" type="matrix" values="0 0 0 0 0 0 0 0 0 0 0 0 0 0 0 0 0 0 127 0" result="hardAlpha"/>
<feOffset dx="-6" dy="7"/>
<feGaussianBlur stdDeviation="33"/>
<feComposite in2="hardAlpha" operator="out"/>
<feColorMatrix type="matrix" values="0 0 0 0 0 0 0 0 0 0 0 0 0 0 0 0 0 0 0.25 0"/>
<feBlend mode="normal" in2="BackgroundImageFix" result="effect1_dropShadow_1_2219"/>
<feBlend mode="normal" in="SourceGraphic" in2="effect1_dropShadow_1_2219" result="shape"/>
</filter>
</defs>
</svg>
