<svg width="398" height="300" viewBox="0 0 398 300" fill="none" xmlns="http://www.w3.org/2000/svg">
<g filter="url(#filter0_d_1_1894)">
<path d="M346.375 3.22097C335.326 -0.712509 323.46 -1.86161 313.361 4.50267C304.809 9.89464 300.809 21.9382 290.091 23.485C277.341 25.3192 275.506 22.6895 267.617 28.1698C265.37 29.6972 263.57 31.7968 262.405 34.2519C261.239 36.707 260.75 39.4287 260.988 42.1359C260.988 42.1359 269.496 30.7995 280.633 32.8105C282.054 32.8957 283.404 33.465 284.456 34.4236C276.169 37.0533 266.645 36.2799 260.988 42.1359C255.386 48.4953 250.57 55.5068 246.646 63.0187C243.221 69.2946 235.597 66.0683 226.426 73.1618C217.256 80.2553 212.659 83.106 209.632 92.2326C206.604 101.359 203.002 106.199 194.892 110.265C189.842 112.769 184.547 114.746 179.092 116.165C179.092 116.165 192.064 120.806 200.152 116.74C208.24 112.673 211.201 108.629 217.941 99.7018C224.681 90.7741 247.906 91.7685 247.906 91.7685C247.906 91.7685 232.724 96.8511 224.835 107.392C216.946 117.933 215.996 126.021 202.604 128.673C191.268 130.882 183.445 128.54 177.611 132.694C171.841 134.215 166.736 137.603 163.093 142.329C154.585 153.555 152.707 155.588 140.597 158.041C128.487 160.494 117.283 172.25 111.074 184.183C104.864 196.116 104.223 202.215 88.3788 208.646C72.5344 215.077 64.2033 217.485 56.0491 227.606C51.9588 232.459 48.2639 237.632 45 243.075C45 243.075 63.2752 224.778 86.0143 220.491C108.753 216.204 127.029 197.928 130.586 186.415C134.144 174.902 150.077 179.918 165.546 170.836C167.725 169.522 169.8 168.045 171.755 166.416C172.758 165.772 173.653 164.974 174.407 164.052C180.396 158.372 183.954 152.516 188.66 148.87C191.904 147.798 195.299 147.261 198.715 147.279C221.786 146.837 238.801 144.384 245.674 131.81C252.546 119.237 257.386 112.762 268.523 114.773C279.661 116.784 287.948 114.154 292.213 113.535C296.478 112.916 299.085 111.082 289.185 122.64C279.285 134.197 267.087 130.175 263.485 135.037L253.784 148.008C253.784 148.008 262.27 136.65 274.821 138.462C287.373 140.274 306.422 136.805 311.261 130.308C316.101 123.811 325.625 114.508 332.498 112.055C339.37 109.602 352.541 105.558 355.59 101.47C357.317 98.9021 359.301 96.5178 361.513 94.354C361.756 104.519 354.596 115.347 346.95 121.734C357.115 117.361 366.031 110.526 372.893 101.845C375.823 98.1598 378.343 94.1659 380.407 89.9343C396.715 56.5439 381.799 15.8611 346.375 3.22097Z" fill="white"/>
<path d="M351.171 14.5794C351.171 14.5794 336.188 8.52451 324.344 10.4913C312.499 12.458 308.455 21.01 301.03 31.352C293.605 41.6939 285.561 42.7105 276.545 46.9312C270.48 49.561 265.546 54.2601 262.623 60.1901C262.027 62.1127 264.7 57.9803 270.159 56.2125C274.653 55.0695 279.295 54.615 283.926 54.8645C280.559 60.8264 275.164 65.3821 268.722 67.7035C257.673 71.9685 249.961 73.8468 246.204 76.8964C243.725 79.1507 241.7 81.8585 240.238 84.8738C239 86.5975 245.608 78.8189 254.579 81.5812C263.551 84.3435 276.678 82.8187 276.678 82.8187C276.678 82.8187 259.552 85.9346 252.701 92.2325C245.851 98.5305 243.243 106.862 240.216 114.331C237.188 121.8 230.603 120.474 225.609 125.247C222.214 128.816 219.496 132.971 217.587 137.512C223.681 132.365 230.639 128.34 238.138 125.623C249.917 121.557 248.149 118.198 255.574 107.944C262.999 97.6908 274.424 96.8953 283.396 99.7018C292.367 102.508 308.61 97.6908 308.61 97.6908C308.61 97.6908 305.781 104.541 301.339 105.27C296.898 106 302.709 109.911 309.228 106.994C315.747 104.077 317.537 98.3317 324.587 100.519C331.636 102.707 332.52 104.387 339.017 101.492C345.514 98.5968 355.524 89.0504 364.164 86.023C372.805 82.9955 380.782 59.5051 375.214 43.1524C369.645 26.7997 351.171 14.5794 351.171 14.5794Z" fill="#EC79FF"/>
<path d="M349.801 21.3636L337.426 17.6953C332.752 16.317 327.735 16.7023 323.327 18.7781L309.891 25.2087C306.386 26.8876 303.288 29.3086 300.811 32.304C298.335 35.2993 296.54 38.7975 295.55 42.5558L290.533 61.6707C290.533 61.6707 298.864 84.3435 307.173 89.2935C315.482 94.2435 339.79 92.1883 350.309 89.9343C360.828 87.6803 370.75 76.1451 371.545 66.6207C372.341 57.0964 374.948 45.1634 368.65 36.6776C362.352 28.1919 349.801 21.3636 349.801 21.3636Z" fill="#331243"/>
<path d="M351.502 43.5502C350.67 44.6633 349.526 45.5044 348.215 45.9672C346.904 46.43 345.486 46.4937 344.139 46.1502C342.792 45.8067 341.577 45.0715 340.648 44.0375C339.719 43.0035 339.117 41.7172 338.919 40.3413C338.722 38.9654 338.936 37.5618 339.536 36.3079C340.136 35.054 341.094 34.0062 342.29 33.297C343.486 32.5878 344.865 32.2492 346.253 32.3238C347.641 32.3985 348.975 32.8832 350.088 33.7165C350.829 34.2677 351.453 34.9598 351.925 35.7531C352.398 36.5465 352.708 37.4254 352.84 38.3393C352.971 39.2532 352.921 40.184 352.691 41.0783C352.462 41.9725 352.058 42.8126 351.502 43.5502V43.5502Z" fill="white" stroke="#331243" stroke-width="0.48418" stroke-linecap="round" stroke-linejoin="round"/>
<path d="M324.653 40.6553C324.002 41.5281 323.106 42.188 322.079 42.5515C321.053 42.9149 319.941 42.9656 318.886 42.697C317.831 42.4284 316.879 41.8527 316.151 41.0427C315.423 40.2327 314.951 39.225 314.796 38.147C314.642 37.069 314.81 35.9694 315.281 34.9872C315.751 34.0051 316.502 33.1846 317.439 32.6298C318.377 32.0749 319.457 31.8106 320.545 31.8703C321.632 31.93 322.677 32.311 323.548 32.9651C324.127 33.3964 324.615 33.9378 324.984 34.5583C325.353 35.1788 325.596 35.866 325.699 36.5806C325.801 37.2952 325.762 38.0231 325.582 38.7223C325.403 39.4216 325.087 40.0785 324.653 40.6553V40.6553Z" fill="white" stroke="#331243" stroke-width="0.48418" stroke-linecap="round" stroke-linejoin="round"/>
<path d="M338.818 64.6098C338.204 65.4329 337.359 66.0554 336.392 66.3988C335.424 66.7421 334.376 66.7908 333.381 66.5387C332.385 66.2866 331.487 65.745 330.799 64.9824C330.111 64.2198 329.665 63.2704 329.517 62.2543C329.369 61.2381 329.525 60.2008 329.966 59.2735C330.407 58.3462 331.113 57.5705 331.995 57.0445C332.877 56.5185 333.895 56.2658 334.921 56.3183C335.947 56.3708 336.933 56.7261 337.757 57.3395C338.304 57.747 338.766 58.2584 339.115 58.8445C339.465 59.4305 339.696 60.0796 339.794 60.7548C339.893 61.43 339.857 62.118 339.69 62.7795C339.522 63.4409 339.226 64.0629 338.818 64.6098V64.6098Z" fill="white" stroke="#331243" stroke-width="0.48418" stroke-linecap="round" stroke-linejoin="round"/>
<path d="M361.977 50.9973C361.688 51.3878 361.29 51.6839 360.833 51.8481C360.377 52.0123 359.881 52.0372 359.41 51.9197C358.939 51.8021 358.513 51.5475 358.187 51.1879C357.861 50.8283 357.649 50.38 357.578 49.8998C357.506 49.4195 357.579 48.9289 357.787 48.4901C357.995 48.0513 358.328 47.684 358.745 47.4347C359.161 47.1855 359.643 47.0655 360.127 47.0899C360.612 47.1144 361.079 47.2822 361.469 47.5721C361.989 47.9596 362.335 48.5377 362.43 49.1797C362.525 49.8217 362.362 50.4753 361.977 50.9973V50.9973Z" fill="white" stroke="#331243" stroke-width="0.48418" stroke-linecap="round" stroke-linejoin="round"/>
<path d="M319.858 63.4164C319.386 64.0458 318.737 64.5211 317.995 64.7821C317.253 65.0432 316.45 65.0783 315.688 64.8831C314.926 64.6878 314.239 64.271 313.714 63.6853C313.189 63.0995 312.849 62.3712 312.738 61.5924C312.626 60.8136 312.749 60.0193 313.089 59.3099C313.429 58.6006 313.972 58.008 314.649 57.6072C315.326 57.2063 316.106 57.0153 316.892 57.0581C317.677 57.1009 318.433 57.3757 319.062 57.8477C319.901 58.4843 320.455 59.426 320.604 60.4686C320.753 61.5112 320.485 62.5704 319.858 63.4164V63.4164Z" fill="white" stroke="#331243" stroke-width="0.48418" stroke-linecap="round" stroke-linejoin="round"/>
<path d="M333.691 30.7332C333.205 31.3808 332.481 31.8087 331.679 31.9227C330.877 32.0366 330.063 31.8274 329.415 31.3409C328.767 30.8545 328.34 30.1307 328.226 29.3288C328.112 28.5269 328.321 27.7125 328.807 27.0649C329.048 26.7442 329.35 26.4742 329.695 26.2701C330.04 26.066 330.422 25.9319 330.819 25.8755C331.217 25.819 331.621 25.8414 332.009 25.9412C332.398 26.041 332.763 26.2164 333.083 26.4572C333.404 26.6981 333.674 26.9997 333.878 27.345C334.082 27.6902 334.216 28.0723 334.273 28.4694C334.329 28.8664 334.307 29.2707 334.207 29.6592C334.107 30.0476 333.932 30.4126 333.691 30.7332V30.7332Z" fill="white" stroke="#331243" stroke-width="0.48418" stroke-linecap="round" stroke-linejoin="round"/>
</g>
<defs>
<filter id="filter0_d_1_1894" x="0" y="0" width="398" height="299.075" filterUnits="userSpaceOnUse" color-interpolation-filters="sRGB">
<feFlood flood-opacity="0" result="BackgroundImageFix"/>
<feColorMatrix in="SourceAlpha" type="matrix" values="0 0 0 0 0 0 0 0 0 0 0 0 0 0 0 0 0 0 127 0" result="hardAlpha"/>
<feOffset dx="-17" dy="28"/>
<feGaussianBlur stdDeviation="14"/>
<feComposite in2="hardAlpha" operator="out"/>
<feColorMatrix type="matrix" values="0 0 0 0 0 0 0 0 0 0 0 0 0 0 0 0 0 0 0.25 0"/>
<feBlend mode="normal" in2="BackgroundImageFix" result="effect1_dropShadow_1_1894"/>
<feBlend mode="normal" in="SourceGraphic" in2="effect1_dropShadow_1_1894" result="shape"/>
</filter>
</defs>
</svg>
