<svg width="405" height="315" viewBox="0 0 405 315" fill="none" xmlns="http://www.w3.org/2000/svg">
<g filter="url(#filter0_d_1_2217)">
<path d="M149.893 240.786C192.36 240.786 226.786 206.36 226.786 163.893C226.786 121.426 192.36 87 149.893 87C107.426 87 73 121.426 73 163.893C73 206.36 107.426 240.786 149.893 240.786Z" fill="white"/>
<mask id="mask0_1_2217" style="mask-type:alpha" maskUnits="userSpaceOnUse" x="73" y="87" width="154" height="154">
<path d="M149.893 240.786C192.36 240.786 226.786 206.36 226.786 163.893C226.786 121.426 192.36 87 149.893 87C107.426 87 73 121.426 73 163.893C73 206.36 107.426 240.786 149.893 240.786Z" fill="white"/>
</mask>
<g mask="url(#mask0_1_2217)">
<path d="M129.051 89.9064C153.962 109.282 199.882 157.942 171.4 237.742C189.324 232.513 204.733 220.941 214.751 205.185C224.77 189.43 228.713 170.567 225.846 152.118C222.979 133.668 213.497 116.892 199.17 104.92C184.843 92.9484 166.649 86.5984 147.983 87.0554C141.578 87.2054 135.216 88.1633 129.051 89.9064Z" fill="#C853FF"/>
</g>
<path d="M149.893 240.786C192.36 240.786 226.786 206.36 226.786 163.893C226.786 121.426 192.36 87 149.893 87C107.426 87 73 121.426 73 163.893C73 206.36 107.426 240.786 149.893 240.786Z" stroke="#040006" stroke-width="0.606464" stroke-linecap="round" stroke-linejoin="round"/>
<path d="M123.487 133.806C129.862 133.806 135.029 128.638 135.029 122.263C135.029 115.889 129.862 110.721 123.487 110.721C117.113 110.721 111.945 115.889 111.945 122.263C111.945 128.638 117.113 133.806 123.487 133.806Z" fill="#C853FF" stroke="#040006" stroke-width="0.606464" stroke-linecap="round" stroke-linejoin="round"/>
<path d="M177.822 117.06C181.215 117.06 183.966 114.309 183.966 110.915C183.966 107.521 181.215 104.77 177.822 104.77C174.428 104.77 171.677 107.521 171.677 110.915C171.677 114.309 174.428 117.06 177.822 117.06Z" fill="#C853FF" stroke="#040006" stroke-width="0.606464" stroke-linecap="round" stroke-linejoin="round"/>
<path d="M162.764 165.111C168.283 165.111 172.756 160.637 172.756 155.119C172.756 149.6 168.283 145.127 162.764 145.127C157.245 145.127 152.772 149.6 152.772 155.119C152.772 160.637 157.245 165.111 162.764 165.111Z" fill="#C853FF" stroke="#040006" stroke-width="0.606464" stroke-linecap="round" stroke-linejoin="round"/>
<path d="M99.1016 169.789C103.351 169.789 106.796 166.344 106.796 162.094C106.796 157.844 103.351 154.399 99.1016 154.399C94.8519 154.399 91.4068 157.844 91.4068 162.094C91.4068 166.344 94.8519 169.789 99.1016 169.789Z" fill="#C853FF" stroke="#040006" stroke-width="0.606464" stroke-linecap="round" stroke-linejoin="round"/>
<path d="M158.695 222.13C166.339 222.13 172.535 215.934 172.535 208.291C172.535 200.647 166.339 194.451 158.695 194.451C151.052 194.451 144.855 200.647 144.855 208.291C144.855 215.934 151.052 222.13 158.695 222.13Z" fill="#C853FF" stroke="#040006" stroke-width="0.606464" stroke-linecap="round" stroke-linejoin="round"/>
<path d="M205.916 164.032C208.882 164.032 211.286 161.627 211.286 158.662C211.286 155.696 208.882 153.292 205.916 153.292C202.95 153.292 200.546 155.696 200.546 158.662C200.546 161.627 202.95 164.032 205.916 164.032Z" fill="#C853FF" stroke="#040006" stroke-width="0.606464" stroke-linecap="round" stroke-linejoin="round"/>
<path d="M113.135 209.426C117.813 209.426 121.605 205.633 121.605 200.956C121.605 196.278 117.813 192.486 113.135 192.486C108.457 192.486 104.665 196.278 104.665 200.956C104.665 205.633 108.457 209.426 113.135 209.426Z" fill="#C853FF" stroke="#040006" stroke-width="0.606464" stroke-linecap="round" stroke-linejoin="round"/>
</g>
<path d="M280.053 128.601C279.127 127.799 278.408 126.783 277.954 125.635C277.499 124.487 277.323 123.239 277.439 121.991C277.469 121.595 277.586 121.208 277.781 120.857C277.976 120.506 278.244 120.201 278.566 119.963V119.963L292.89 111.119L298.332 125.055L282.214 129.225C281.825 129.289 281.43 129.267 281.057 129.159C280.683 129.051 280.34 128.861 280.053 128.601V128.601Z" fill="#F5F5F5"/>
<path d="M281.065 118.361C280.746 118.628 280.483 118.956 280.29 119.324C280.098 119.693 279.98 120.095 279.945 120.506C279.817 121.883 280.012 123.262 280.513 124.531C281.015 125.799 281.809 126.921 282.832 127.807C283.131 128.065 283.48 128.259 283.857 128.379C284.235 128.498 284.635 128.541 285.034 128.503L283.462 128.905L282.184 129.213C281.802 129.274 281.413 129.251 281.045 129.146C280.677 129.04 280.338 128.854 280.053 128.601C279.127 127.799 278.408 126.783 277.954 125.635C277.499 124.487 277.323 123.239 277.439 121.992C277.469 121.595 277.586 121.208 277.781 120.857C277.976 120.506 278.244 120.201 278.566 119.963L279.765 119.203L281.065 118.361Z" fill="#BA68C8"/>
<path opacity="0.1" d="M278.76 127.192L296.24 119.72L298.332 125.055L282.214 129.225C281.825 129.289 281.43 129.267 281.057 129.159C280.683 129.051 280.34 128.861 280.053 128.601C279.55 128.205 279.113 127.729 278.76 127.192V127.192Z" fill="#455A64"/>
<path d="M291.159 114.206C290.984 116.076 291.247 117.947 291.927 119.669C292.608 121.39 293.686 122.914 295.074 124.116C297.742 126.173 300.313 125.069 300.842 121.676C301.017 119.807 300.754 117.935 300.073 116.213C299.393 114.492 298.315 112.968 296.927 111.767C294.211 109.671 291.639 110.776 291.159 114.206Z" fill="#E0E0E0"/>
<path d="M271.647 115.899C270.722 115.097 270.004 114.082 269.551 112.934C269.098 111.787 268.923 110.54 269.039 109.294C269.068 108.897 269.184 108.509 269.379 108.158C269.574 107.808 269.843 107.503 270.167 107.266L284.49 98.4213L289.96 112.398L273.82 116.532C273.429 116.596 273.032 116.572 272.656 116.463C272.28 116.353 271.936 116.161 271.647 115.899V115.899Z" fill="#F5F5F5"/>
<path d="M272.69 105.683C272.377 105.946 272.118 106.269 271.93 106.632C271.741 106.995 271.627 107.391 271.594 107.796C271.463 109.173 271.655 110.552 272.154 111.821C272.654 113.09 273.447 114.213 274.47 115.098C274.769 115.357 275.117 115.552 275.495 115.671C275.873 115.791 276.273 115.833 276.672 115.795L275.106 116.201L273.829 116.509C273.44 116.566 273.047 116.537 272.676 116.424C272.305 116.311 271.965 116.117 271.681 115.855C270.756 115.053 270.039 114.038 269.585 112.89C269.132 111.743 268.957 110.496 269.073 109.25C269.102 108.853 269.218 108.465 269.413 108.114C269.608 107.764 269.877 107.459 270.201 107.222L271.393 106.457L272.69 105.683Z" fill="#BA68C8"/>
<path opacity="0.1" d="M270.383 114.503L287.865 107.042L289.951 112.371L273.82 116.532C273.432 116.59 273.038 116.561 272.667 116.448C272.296 116.335 271.957 116.14 271.673 115.878C271.174 115.49 270.739 115.027 270.383 114.503V114.503Z" fill="#455A64"/>
<path d="M290.349 112.229C288.104 113.188 285.046 110.83 283.518 106.963C281.99 103.095 282.571 99.1824 284.816 98.2236C287.061 97.2647 290.119 99.6227 291.647 103.49C293.175 107.358 292.594 111.27 290.349 112.229Z" fill="#E0E0E0"/>
<path d="M367.053 67.8273L340.434 69.7534L312.116 53.5215L302.744 57.5221L296.773 97.8499L367.053 67.8273Z" fill="#BA68C8"/>
<path opacity="0.6" d="M367.053 67.8273L340.434 69.7534L312.116 53.5215L302.744 57.5221L296.773 97.8499L367.053 67.8273Z" fill="white"/>
<path d="M302.744 57.5221L312.116 53.5214L306.139 93.8446L296.773 97.8499L302.744 57.5221Z" fill="#BA68C8"/>
<path opacity="0.3" d="M302.744 57.5221L312.116 53.5214L306.139 93.8446L296.773 97.8499L302.744 57.5221Z" fill="#455A64"/>
<path d="M278.724 100.782C279.249 97.256 280.608 94.664 282.492 93.129C282.961 92.7362 283.483 92.4124 284.04 92.1675L284.399 92.0036L340.699 67.9621C349.944 64.0155 359.91 62.2747 369.802 62.8787L400.333 64.7332L401.935 70.3118L382.558 88.7043C376.528 94.4363 369.54 99.0377 361.942 102.28L298.658 129.317C296.374 130.213 293.629 129.88 290.781 128.194C290.204 127.846 289.647 127.467 289.113 127.057C282.035 121.587 277.389 109.829 278.724 100.782Z" fill="#BA68C8"/>
<path opacity="0.9" d="M278.724 100.782C279.249 97.256 280.608 94.664 282.492 93.129C282.961 92.7362 283.483 92.4124 284.04 92.1675L284.399 92.0036L340.699 67.9621C349.944 64.0155 359.91 62.2747 369.802 62.8787L400.333 64.7332L401.935 70.3118L382.558 88.7043C376.528 94.4363 369.54 99.0377 361.942 102.28L298.658 129.317C296.374 130.213 293.629 129.88 290.781 128.194C290.204 127.846 289.647 127.467 289.113 127.057C282.035 121.587 277.389 109.829 278.724 100.782Z" fill="white"/>
<path d="M305.885 126.209C303.601 127.104 300.856 126.771 298.008 125.085C297.431 124.738 296.874 124.358 296.34 123.949C289.269 118.494 284.623 106.736 285.965 97.6937C286.483 94.163 287.837 91.5773 289.721 90.0423C290.189 89.6483 290.711 89.3243 291.269 89.0807L284.034 92.1627C283.477 92.4076 282.955 92.7315 282.486 93.1243C280.592 94.6719 279.243 97.2513 278.718 100.777C277.407 109.793 282.029 121.582 289.1 127.037C289.634 127.447 290.191 127.826 290.768 128.174C293.628 129.869 296.373 130.202 298.645 129.297L305.885 126.209Z" fill="#BA68C8"/>
<path d="M393.483 66.2074C393.553 65.5327 393.828 64.89 394.271 64.3682L397.713 64.5775L400.339 64.738C400.897 64.7732 401.43 64.9599 401.883 65.2783C402.336 65.5966 402.691 66.035 402.912 66.547C403.132 67.0591 403.21 67.6259 403.136 68.1878C403.063 68.7497 402.841 69.2858 402.494 69.7396C402.327 69.9495 402.135 70.1386 401.923 70.3024V70.3024L400.272 71.8762L398.037 73.9925C397.56 73.9678 397.101 73.8235 396.7 73.5726C396.566 73.4692 396.42 73.3564 396.267 73.239C395.281 72.3867 394.515 71.3059 394.032 70.0843C393.548 68.8627 393.36 67.5346 393.483 66.2074V66.2074Z" fill="#BA68C8"/>
<path opacity="0.6" d="M350.282 77.3508C341.976 80.8003 302.271 97.8 278.785 107.868C278.422 105.537 278.398 103.154 278.715 100.795C279.24 97.2686 280.598 94.6766 282.482 93.1416C282.951 92.7488 283.473 92.425 284.03 92.1801L284.39 92.0162L340.689 67.9747C349.934 64.0281 359.9 62.2873 369.792 62.8913L399.258 64.666L400.339 64.738C400.949 64.7717 401.53 64.9864 402.01 65.3551C402.602 65.8087 403 66.473 403.126 67.2195C401.472 63.9372 385.801 69.6669 375.371 71.4877C364.942 73.3084 354.955 75.4109 350.282 77.3508Z" fill="white"/>
<path d="M368.618 81.6395C366.453 77.1417 365.566 72.1851 366.187 68.0421C366.415 66.1728 367.105 64.3771 368.194 62.8217C368.731 62.8443 369.264 62.845 369.802 62.8786L382.498 63.6485L381.908 64.2868C381.836 64.3677 381.769 64.4539 381.709 64.5445C381.111 65.3909 380.735 66.3724 380.619 67.3934C380.341 70.023 380.753 72.6588 381.815 75.035L382.211 75.9823L369.088 82.604L368.618 81.6395Z" fill="#BA68C8"/>
<path d="M367.247 68.1675C367.448 66.2321 368.236 64.3884 369.503 62.8885L381.137 63.5613C380.246 64.6072 379.692 65.8975 379.552 67.2523C379.237 70.0804 379.673 72.919 380.814 75.4761L369.584 81.1419C367.602 77.0252 366.639 72.2414 367.247 68.1675Z" fill="#455A64"/>
<path opacity="0.1" d="M367.247 68.1675C367.448 66.2321 368.236 64.3884 369.503 62.8885L381.137 63.5613C380.82 63.9141 380.552 64.3081 380.341 64.732C379.025 64.8503 377.242 64.6178 376.516 66.0128C375.676 67.6308 376.22 69.7958 376.034 71.4975C376.002 71.9523 375.878 72.3986 375.669 72.8083C375.46 73.2181 375.17 73.5825 374.819 73.8789C374.092 74.2937 373.293 74.5577 372.471 74.655C372.062 74.7064 371.668 74.854 371.32 75.0858C370.972 75.3177 370.681 75.6272 370.47 75.9893C370.11 76.8343 370.554 77.6183 370.919 78.3413C371.177 78.9314 371.479 79.4997 371.823 80.0411L369.571 81.1718C367.602 77.0253 366.639 72.2414 367.247 68.1675Z" fill="white"/>
<path opacity="0.05" d="M373.872 66.1789L373.868 66.2464C373.796 67.1041 373.675 67.9585 373.506 68.8053C373.369 69.5118 373.059 70.3551 372.357 70.496C371.656 70.6369 371.01 69.9881 370.357 70.2058C370.102 70.3134 369.881 70.4906 369.719 70.717C368.94 71.7531 368.408 72.9516 368.164 74.2163C367.921 75.481 367.973 76.7765 368.318 77.9988C367.21 74.8647 366.842 71.4927 367.244 68.1455C367.446 66.2102 368.234 64.3665 369.5 62.8666L376.318 63.2728C374.683 63.7667 374.045 64.518 373.872 66.1789Z" fill="white"/>
<path opacity="0.15" d="M290.774 128.178C290.197 127.831 289.64 127.451 289.106 127.042C288.487 126.552 287.895 126.028 287.333 125.474C306.852 117.098 354.487 96.6694 363.321 93.0259C374.492 88.418 397.031 73.2566 401.324 68.1956C402.361 66.9901 401.769 65.8312 400.289 64.7397L400.32 64.7632C400.875 64.7982 401.406 64.9832 401.857 65.299C402.309 65.6147 402.664 66.0495 402.887 66.558C403.109 67.0665 403.189 67.63 403.12 68.1897C403.051 68.7493 402.835 69.2846 402.494 69.7396C402.327 69.9496 402.135 70.1386 401.923 70.3025V70.3025L382.546 88.695C376.516 94.427 369.528 99.0284 361.929 102.271L298.646 129.308C296.379 130.206 293.64 129.878 290.774 128.178Z" fill="#BA68C8"/>
<path opacity="0.6" d="M401.923 70.3024L400.272 71.8763L398.037 73.9925C397.56 73.9678 397.1 73.8235 396.7 73.5726C396.566 73.4692 396.42 73.3564 396.267 73.239C396.115 73.1215 396.024 73.051 395.902 72.9571C397.84 71.5345 399.651 69.9413 401.313 68.1971C402.35 66.9916 401.758 65.8327 400.278 64.7412L400.309 64.7647C400.864 64.7981 401.397 64.9818 401.85 65.2967C402.302 65.6116 402.659 66.046 402.882 66.5546C403.106 67.0631 403.188 67.6271 403.119 68.1874C403.051 68.7477 402.835 69.2838 402.494 69.7396C402.343 69.931 402.17 70.1041 401.979 70.2552L401.923 70.3024Z" fill="#455A64"/>
<path d="M287.059 163.378L293.03 123.05L363.321 93.0258L335.681 116.637L298.398 160.895L289.026 164.895L287.059 163.378Z" fill="#BA68C8"/>
<path opacity="0.6" d="M287.059 163.378L293.03 123.05L363.321 93.0258L335.681 116.637L298.398 160.895L289.026 164.895L287.059 163.378Z" fill="white"/>
<path d="M335.681 116.637L333.714 115.119L363.321 93.0259L335.681 116.637Z" fill="#BA68C8"/>
<path d="M333.714 115.119L296.425 159.373L298.398 160.895L335.681 116.637L333.714 115.119Z" fill="#BA68C8"/>
<path opacity="0.3" d="M333.714 115.119L296.425 159.373L298.398 160.895L335.681 116.637L333.714 115.119Z" fill="white"/>
<path d="M302.402 119.05L296.425 159.373L287.059 163.378L293.03 123.05L302.402 119.05Z" fill="#BA68C8"/>
<path opacity="0.3" d="M302.402 119.05L296.425 159.373L287.059 163.378L293.03 123.05L302.402 119.05Z" fill="#455A64"/>
<path d="M287.059 163.378L296.425 159.373L298.398 160.895L289.026 164.896L287.059 163.378Z" fill="#BA68C8"/>
<path opacity="0.5" d="M287.059 163.378L296.425 159.373L298.398 160.895L289.026 164.896L287.059 163.378Z" fill="#455A64"/>
<path d="M250.085 87.12L254.774 85.122L297.895 90.3018L297.516 92.8074L278.72 100.839L249.706 89.6256L250.085 87.12Z" fill="#BA68C8"/>
<path d="M297.516 92.8073L278.72 100.838L249.706 89.6255L254.389 87.6228L297.516 92.8073Z" fill="#BA68C8"/>
<path opacity="0.5" d="M254.774 85.122L254.389 87.6229L249.706 89.6256L250.085 87.12L254.774 85.122Z" fill="white"/>
<path opacity="0.6" d="M254.389 87.6228L297.516 92.8073L278.72 100.838L249.706 89.6255L254.389 87.6228Z" fill="#455A64"/>
<path opacity="0.8" d="M271.44 113.032C270.171 109.816 266.41 105.701 260.549 107.808C254.688 109.914 253.623 114.367 253.623 114.367C253.623 114.367 256.048 113.742 257.184 114.688C257.184 114.688 249.87 116.235 248.88 120.867C248.88 120.867 252.33 119.116 253.2 120.418C254.069 121.721 248.214 124.865 244.767 124.863C244.767 124.863 246.477 126.563 250.318 126.408C254.158 126.252 259.242 123.516 259.242 123.516C259.052 124.174 258.721 124.785 258.272 125.306C257.823 125.827 257.268 126.244 256.647 126.528C256.647 126.528 262.634 126.965 267.136 124.642C269.187 123.598 270.781 121.805 271.583 119.64C272.386 117.475 272.334 115.107 271.44 113.032V113.032Z" fill="#BA68C8"/>
<path opacity="0.8" d="M268.674 114.187C267.506 111.23 262.59 110.917 259.631 115.533C259.631 115.533 262.453 114.531 263.085 115.992C263.717 117.452 258.475 119.876 257.212 120.205C257.212 120.205 261.644 121.448 265.202 119.921C267.759 118.836 269.777 116.963 268.674 114.187Z" fill="white"/>
<path opacity="0.8" d="M279.507 125.002C280.777 128.217 280.894 133.883 275.288 136.678C269.683 139.473 265.932 137.07 265.932 137.07C265.932 137.07 268.081 135.72 268.248 134.244C268.248 134.244 262.019 138.464 258.168 135.914C258.168 135.914 261.799 134.644 261.544 133.074C261.289 131.503 254.989 133.562 252.539 136.083C252.539 136.083 252.606 133.628 255.442 130.923C258.277 128.217 264.516 126.792 264.516 126.792C264.004 126.32 263.394 125.966 262.728 125.755C262.062 125.543 261.354 125.479 260.652 125.567C262.77 123.002 265.511 121.032 268.592 119.859C270.761 119.103 273.112 119.217 275.148 120.176C277.184 121.135 278.747 122.865 279.507 125.002V125.002Z" fill="#BA68C8"/>
<path opacity="0.8" d="M276.795 126.188C277.957 129.14 274.674 132.955 269.449 131.832C269.449 131.832 272.138 130.487 271.59 128.981C271.042 127.475 265.688 129.592 264.571 130.284C264.571 130.284 266.884 126.153 270.443 124.637C272.985 123.559 275.682 123.424 276.795 126.188Z" fill="white"/>
<defs>
<filter id="filter0_d_1_2217" x="0.696777" y="27.6968" width="286.393" height="286.393" filterUnits="userSpaceOnUse" color-interpolation-filters="sRGB">
<feFlood flood-opacity="0" result="BackgroundImageFix"/>
<feColorMatrix in="SourceAlpha" type="matrix" values="0 0 0 0 0 0 0 0 0 0 0 0 0 0 0 0 0 0 127 0" result="hardAlpha"/>
<feOffset dx="-6" dy="7"/>
<feGaussianBlur stdDeviation="33"/>
<feComposite in2="hardAlpha" operator="out"/>
<feColorMatrix type="matrix" values="0 0 0 0 0 0 0 0 0 0 0 0 0 0 0 0 0 0 0.25 0"/>
<feBlend mode="normal" in2="BackgroundImageFix" result="effect1_dropShadow_1_2217"/>
<feBlend mode="normal" in="SourceGraphic" in2="effect1_dropShadow_1_2217" result="shape"/>
</filter>
</defs>
</svg>
