<svg width="844" height="877" viewBox="0 0 844 877" fill="none" xmlns="http://www.w3.org/2000/svg">
<g filter="url(#filter0_d_1_2085)">
<path d="M536.574 628.142C638.113 562.948 667.576 427.784 602.382 326.245C537.188 224.706 402.024 195.243 300.485 260.437C198.946 325.631 169.483 460.795 234.677 562.334C299.871 663.873 435.035 693.336 536.574 628.142Z" fill="white"/>
<mask id="mask0_1_2085" style="mask-type:alpha" maskUnits="userSpaceOnUse" x="200" y="225" width="438" height="438">
<path d="M536.574 628.142C638.113 562.948 667.576 427.784 602.382 326.245C537.188 224.706 402.024 195.243 300.485 260.437C198.946 325.631 169.483 460.795 234.677 562.334C299.871 663.873 435.035 693.336 536.574 628.142Z" fill="white"/>
</mask>
<g mask="url(#mask0_1_2085)">
<path d="M636.498 459.084L411.43 296.969L628.941 385.464C627.748 381.065 626.342 376.728 624.849 372.388L354.323 235.436C337.858 240.466 322.054 247.449 307.25 256.237L368.368 300.812L284.94 271.3L369.443 340.882L243.34 313.777C241.46 316.309 239.666 318.844 237.888 321.433L504.344 452.896L313.366 399.739L398.17 461.065L301.351 438.815L588.269 581.783C607.077 558.656 620.921 531.903 628.938 503.191L561.565 451.75L633.093 485.242C634.74 476.597 635.877 467.863 636.498 459.084V459.084Z" fill="#C853FF"/>
<path d="M555.634 614.346L323.916 494.521L437.877 575.293L209.593 508.197C225.975 561.862 262.388 607.16 311.279 634.692C360.169 662.224 417.782 669.877 472.164 656.063L387.281 625.306L507.348 643.928C524.669 636.224 540.903 626.278 555.634 614.346Z" fill="#C853FF"/>
<path d="M419.102 225.965L549.306 293.957L515.523 261.677L553.162 272.413C514.919 242.389 467.723 226.037 419.102 225.965V225.965Z" fill="#C853FF"/>
<path d="M275.955 468.179L201.39 420.987C198.97 443.727 200.105 466.706 204.755 489.096L275.955 468.179Z" fill="#C853FF"/>
</g>
<path d="M536.574 628.142C638.113 562.948 667.576 427.784 602.382 326.245C537.188 224.706 402.024 195.243 300.485 260.437C198.946 325.631 169.483 460.795 234.677 562.334C299.871 663.873 435.035 693.336 536.574 628.142Z" stroke="#263238" stroke-width="0.855759" stroke-linecap="round" stroke-linejoin="round"/>
<path d="M666.329 189.122C638.666 162.655 571.495 184.27 492.362 238.618C499.746 241.302 506.985 244.371 514.049 247.811C573.115 207.039 620.012 189.885 637.849 206.9C669.49 237.157 597.724 363.684 477.499 489.441C357.274 615.197 234.175 692.721 202.534 662.464C186.233 646.872 197.437 605.702 228.536 552.244C224.671 545.436 221.173 538.428 218.055 531.247C174.607 605.729 160.097 666.873 185.956 691.592C229.786 733.489 372.8 654.917 505.432 516.145C638.064 377.373 710.177 230.985 666.329 189.122Z" fill="#C853FF" stroke="#263238" stroke-width="0.855759" stroke-linecap="round" stroke-linejoin="round"/>
</g>
<defs>
<filter id="filter0_d_1_2085" x="100.702" y="118.425" width="638.893" height="657.863" filterUnits="userSpaceOnUse" color-interpolation-filters="sRGB">
<feFlood flood-opacity="0" result="BackgroundImageFix"/>
<feColorMatrix in="SourceAlpha" type="matrix" values="0 0 0 0 0 0 0 0 0 0 0 0 0 0 0 0 0 0 127 0" result="hardAlpha"/>
<feOffset dx="-6" dy="7"/>
<feGaussianBlur stdDeviation="33"/>
<feComposite in2="hardAlpha" operator="out"/>
<feColorMatrix type="matrix" values="0 0 0 0 0 0 0 0 0 0 0 0 0 0 0 0 0 0 0.25 0"/>
<feBlend mode="normal" in2="BackgroundImageFix" result="effect1_dropShadow_1_2085"/>
<feBlend mode="normal" in="SourceGraphic" in2="effect1_dropShadow_1_2085" result="shape"/>
</filter>
</defs>
</svg>
