<svg width="321" height="205" viewBox="0 0 321 205" fill="none" xmlns="http://www.w3.org/2000/svg">
<g filter="url(#filter0_d_1_2154)">
<path d="M168.605 131.4C188.321 131.4 204.304 115.416 204.304 95.7C204.304 75.9835 188.321 60.0001 168.605 60.0001C148.888 60.0001 132.905 75.9835 132.905 95.7C132.905 115.416 148.888 131.4 168.605 131.4Z" fill="white" stroke="white" stroke-width="0.562328" stroke-linecap="round" stroke-linejoin="round"/>
<path d="M159.519 69.496C157.077 67.3533 154.269 65.6668 151.229 64.517C154.085 62.9078 157.152 61.7071 160.341 60.9496C163.703 63.0905 166.911 65.4661 169.939 68.0588C183.003 79.3514 179.487 78.3248 198.171 84.7924C199.896 85.3813 201.562 86.1288 203.15 87.0252C203.779 89.5465 204.141 92.1274 204.228 94.7247C204.329 99.2217 203.58 103.697 202.02 107.916C195.322 106.069 186.442 103.014 182.258 99.0364C175.226 92.3378 173.763 81.9178 159.519 69.496Z" fill="#C853FF"/>
<path d="M195.142 119.568C192.519 122.509 189.422 124.99 185.98 126.908C179.23 122.443 176.022 117.592 166.423 113.511C158.031 109.944 144.274 109.456 135.625 109.559C133.904 105.492 132.956 101.141 132.828 96.7265C132.828 96.1106 132.828 95.5203 132.828 94.9044C142.961 95.4374 152.959 97.4699 162.496 100.936C176.253 105.838 183.054 115.231 195.142 119.568Z" fill="#C853FF"/>
<path d="M158.724 83.4577C152.487 86.7685 142.734 85.3569 135.112 83.4577C136.454 79.7838 138.397 76.3582 140.861 73.3201C150.947 74.8857 167.347 78.8637 158.724 83.4577Z" fill="#C853FF"/>
<path d="M184.543 63.1055C225.606 65.133 259.664 76.4512 259.997 90.0536C260.382 106.017 218.934 119.979 167.219 121.262C115.504 122.545 73.3878 110.663 73.0028 94.7247C72.6435 80.301 106.547 67.4942 151.204 64.2347" stroke="white" stroke-width="0.562328" stroke-linecap="round" stroke-linejoin="round"/>
<path d="M190.086 64.5684C215.392 67.5199 233.511 76.0663 233.716 86.5889C234.05 100.268 204.176 112.1 166.988 113.024C129.799 113.948 99.3351 103.605 99.0014 89.9254C98.6934 78.5045 119.533 68.3668 148.021 64.7994" stroke="white" stroke-width="0.562328" stroke-linecap="round" stroke-linejoin="round"/>
<path d="M259.227 101.603C259.197 100.39 258.807 99.214 258.108 98.2228C257.408 97.2316 256.431 96.47 255.299 96.0342C254.167 95.5985 252.931 95.5081 251.748 95.7746C250.564 96.0412 249.487 96.6526 248.651 97.5316C247.815 98.4106 247.258 99.5177 247.051 100.713C246.845 101.908 246.997 103.138 247.489 104.247C247.981 105.355 248.79 106.293 249.816 106.942C250.841 107.591 252.035 107.921 253.247 107.891C254.054 107.874 254.849 107.698 255.588 107.372C256.326 107.046 256.992 106.578 257.548 105.993C258.104 105.409 258.539 104.72 258.827 103.966C259.115 103.212 259.251 102.409 259.227 101.603V101.603Z" fill="#C853FF"/>
<path d="M106.162 88.7704C106.131 87.5567 105.741 86.3796 105.04 85.388C104.34 84.3963 103.361 83.6349 102.227 83.2C101.094 82.7652 99.8565 82.6765 98.6725 82.9452C97.4885 83.2139 96.4109 83.8279 95.5761 84.7095C94.7414 85.591 94.187 86.7004 93.9832 87.8973C93.7794 89.0941 93.9353 90.3245 94.4313 91.4327C94.9272 92.5409 95.7408 93.4769 96.7691 94.1223C97.7974 94.7677 98.9941 95.0935 100.208 95.0584C101.012 95.0384 101.805 94.8597 102.54 94.5326C103.275 94.2054 103.938 93.7362 104.492 93.1519C105.045 92.5676 105.477 91.8797 105.764 91.1278C106.051 90.3759 106.186 89.5748 106.162 88.7704V88.7704Z" fill="#C853FF"/>
</g>
<defs>
<filter id="filter0_d_1_2154" x="0.718872" y="0.718872" width="319.562" height="203.962" filterUnits="userSpaceOnUse" color-interpolation-filters="sRGB">
<feFlood flood-opacity="0" result="BackgroundImageFix"/>
<feColorMatrix in="SourceAlpha" type="matrix" values="0 0 0 0 0 0 0 0 0 0 0 0 0 0 0 0 0 0 127 0" result="hardAlpha"/>
<feOffset dx="-6" dy="7"/>
<feGaussianBlur stdDeviation="33"/>
<feComposite in2="hardAlpha" operator="out"/>
<feColorMatrix type="matrix" values="0 0 0 0 0 0 0 0 0 0 0 0 0 0 0 0 0 0 0.25 0"/>
<feBlend mode="normal" in2="BackgroundImageFix" result="effect1_dropShadow_1_2154"/>
<feBlend mode="normal" in="SourceGraphic" in2="effect1_dropShadow_1_2154" result="shape"/>
</filter>
</defs>
</svg>
