<svg width="1703" height="936" viewBox="0 0 1703 936" fill="none" xmlns="http://www.w3.org/2000/svg">
<g filter="url(#filter0_f_1_2215)">
<g filter="url(#filter1_d_1_2215)">
<path d="M1393.85 517.689C1392.02 515.854 1391 513.372 1391 510.785C1391 508.198 1392.02 505.716 1393.85 503.881V503.881C1394.75 502.968 1395.82 502.244 1397.01 501.749C1398.19 501.255 1399.47 501 1400.75 501C1402.03 501 1403.31 501.255 1404.49 501.749C1405.68 502.244 1406.75 502.968 1407.65 503.881C1407.65 503.881 1602.48 704.789 1598.64 708.631C1594.8 712.474 1393.85 517.689 1393.85 517.689Z" fill="url(#paint0_linear_1_2215)" shape-rendering="crispEdges"/>
</g>
<g filter="url(#filter2_d_1_2215)">
<path d="M858.699 839.098C858.251 838.647 858 838.038 858 837.403C858 836.768 858.251 836.158 858.699 835.708V835.708C858.921 835.483 859.185 835.305 859.476 835.184C859.767 835.063 860.079 835 860.394 835C860.71 835 861.022 835.063 861.313 835.184C861.604 835.305 861.868 835.483 862.09 835.708C862.09 835.708 909.932 885.043 908.988 885.986C908.044 886.93 858.699 839.098 858.699 839.098Z" fill="url(#paint1_linear_1_2215)" shape-rendering="crispEdges"/>
</g>
<g filter="url(#filter3_d_1_2215)">
<path d="M451.699 296.098C451.251 295.647 451 295.038 451 294.403C451 293.768 451.251 293.158 451.699 292.708V292.708C451.921 292.483 452.185 292.305 452.476 292.184C452.767 292.063 453.079 292 453.394 292C453.71 292 454.022 292.063 454.313 292.184C454.604 292.305 454.868 292.483 455.09 292.708C455.09 292.708 502.932 342.043 501.988 342.986C501.044 343.93 451.699 296.098 451.699 296.098Z" fill="url(#paint2_linear_1_2215)" shape-rendering="crispEdges"/>
</g>
<g filter="url(#filter4_d_1_2215)">
<path d="M1454.85 650.689C1453.02 648.854 1452 646.372 1452 643.785C1452 641.198 1453.02 638.716 1454.85 636.881V636.881C1455.75 635.968 1456.82 635.244 1458.01 634.749C1459.19 634.255 1460.47 634 1461.75 634C1463.03 634 1464.31 634.255 1465.49 634.749C1466.68 635.244 1467.75 635.968 1468.65 636.881C1468.65 636.881 1663.48 837.789 1659.64 841.631C1655.8 845.474 1454.85 650.689 1454.85 650.689Z" fill="url(#paint3_linear_1_2215)" shape-rendering="crispEdges"/>
</g>
<g filter="url(#filter5_d_1_2215)">
<path d="M31.8462 173.689C30.0231 171.854 29 169.372 29 166.785C29 164.198 30.0231 161.716 31.8462 159.881V159.881C32.7493 158.968 33.8245 158.244 35.0096 157.749C36.1946 157.255 37.4659 157 38.75 157C40.0341 157 41.3054 157.255 42.4905 157.749C43.6755 158.244 44.7507 158.968 45.6539 159.881C45.6539 159.881 240.481 360.789 236.638 364.631C232.796 368.474 31.8462 173.689 31.8462 173.689Z" fill="url(#paint4_linear_1_2215)" shape-rendering="crispEdges"/>
</g>
<g filter="url(#filter6_d_1_2215)">
<path d="M181.932 250.33C180.695 249.084 180 247.399 180 245.643C180 243.887 180.695 242.202 181.932 240.956V240.956C182.545 240.336 183.275 239.844 184.08 239.509C184.884 239.173 185.748 239 186.619 239C187.491 239 188.354 239.173 189.159 239.509C189.963 239.844 190.693 240.336 191.306 240.956C191.306 240.956 323.575 377.353 320.967 379.962C318.358 382.571 181.932 250.33 181.932 250.33Z" fill="url(#paint5_linear_1_2215)" shape-rendering="crispEdges"/>
</g>
<g filter="url(#filter7_d_1_2215)">
<path d="M120.507 31.8391C119.542 30.8671 119 29.5527 119 28.1826C119 26.8125 119.542 25.498 120.507 24.526V24.526C120.986 24.0426 121.555 23.6587 122.183 23.3968C122.811 23.1349 123.484 23 124.164 23C124.844 23 125.517 23.1349 126.145 23.3968C126.773 23.6587 127.342 24.0426 127.821 24.526C127.821 24.526 231.009 130.935 228.974 132.97C226.939 135.005 120.507 31.8391 120.507 31.8391Z" fill="url(#paint6_linear_1_2215)" shape-rendering="crispEdges"/>
</g>
</g>
<g filter="url(#filter8_d_1_2215)">
<path d="M1399.85 524.689C1398.02 522.854 1397 520.372 1397 517.785C1397 515.198 1398.02 512.716 1399.85 510.881V510.881C1400.75 509.968 1401.82 509.244 1403.01 508.749C1404.19 508.255 1405.47 508 1406.75 508C1408.03 508 1409.31 508.255 1410.49 508.749C1411.68 509.244 1412.75 509.968 1413.65 510.881C1413.65 510.881 1608.48 711.789 1604.64 715.631C1600.8 719.474 1399.85 524.689 1399.85 524.689Z" fill="url(#paint7_linear_1_2215)" shape-rendering="crispEdges"/>
</g>
<g filter="url(#filter9_d_1_2215)">
<path d="M864.699 846.098C864.251 845.647 864 845.038 864 844.403C864 843.768 864.251 843.158 864.699 842.708V842.708C864.921 842.483 865.185 842.305 865.476 842.184C865.767 842.063 866.079 842 866.394 842C866.71 842 867.022 842.063 867.313 842.184C867.604 842.305 867.868 842.483 868.09 842.708C868.09 842.708 915.932 892.043 914.988 892.986C914.044 893.93 864.699 846.098 864.699 846.098Z" fill="url(#paint8_linear_1_2215)" shape-rendering="crispEdges"/>
</g>
<g filter="url(#filter10_d_1_2215)">
<path d="M457.699 303.098C457.251 302.647 457 302.038 457 301.403C457 300.768 457.251 300.158 457.699 299.708V299.708C457.921 299.483 458.185 299.305 458.476 299.184C458.767 299.063 459.079 299 459.394 299C459.71 299 460.022 299.063 460.313 299.184C460.604 299.305 460.868 299.483 461.09 299.708C461.09 299.708 508.932 349.043 507.988 349.986C507.044 350.93 457.699 303.098 457.699 303.098Z" fill="url(#paint9_linear_1_2215)" shape-rendering="crispEdges"/>
</g>
<g filter="url(#filter11_d_1_2215)">
<path d="M1460.85 657.689C1459.02 655.854 1458 653.372 1458 650.785C1458 648.198 1459.02 645.716 1460.85 643.881V643.881C1461.75 642.968 1462.82 642.244 1464.01 641.749C1465.19 641.255 1466.47 641 1467.75 641C1469.03 641 1470.31 641.255 1471.49 641.749C1472.68 642.244 1473.75 642.968 1474.65 643.881C1474.65 643.881 1669.48 844.789 1665.64 848.631C1661.8 852.474 1460.85 657.689 1460.85 657.689Z" fill="url(#paint10_linear_1_2215)" shape-rendering="crispEdges"/>
</g>
<g filter="url(#filter12_d_1_2215)">
<path d="M37.8462 180.689C36.0231 178.854 35 176.372 35 173.785C35 171.198 36.0231 168.716 37.8462 166.881V166.881C38.7493 165.968 39.8245 165.244 41.0096 164.749C42.1946 164.255 43.4659 164 44.75 164C46.0341 164 47.3054 164.255 48.4905 164.749C49.6755 165.244 50.7507 165.968 51.6539 166.881C51.6539 166.881 246.481 367.789 242.638 371.631C238.796 375.474 37.8462 180.689 37.8462 180.689Z" fill="url(#paint11_linear_1_2215)" shape-rendering="crispEdges"/>
</g>
<g filter="url(#filter13_d_1_2215)">
<path d="M187.932 257.33C186.695 256.084 186 254.399 186 252.643C186 250.887 186.695 249.202 187.932 247.956V247.956C188.545 247.336 189.275 246.844 190.08 246.509C190.884 246.173 191.748 246 192.619 246C193.491 246 194.354 246.173 195.159 246.509C195.963 246.844 196.693 247.336 197.306 247.956C197.306 247.956 329.575 384.353 326.967 386.962C324.358 389.571 187.932 257.33 187.932 257.33Z" fill="url(#paint12_linear_1_2215)" shape-rendering="crispEdges"/>
</g>
<g filter="url(#filter14_d_1_2215)">
<path d="M126.507 38.8391C125.542 37.8671 125 36.5527 125 35.1826C125 33.8125 125.542 32.498 126.507 31.526V31.526C126.986 31.0426 127.555 30.6587 128.183 30.3968C128.811 30.1349 129.484 30 130.164 30C130.844 30 131.517 30.1349 132.145 30.3968C132.773 30.6587 133.342 31.0426 133.821 31.526C133.821 31.526 237.009 137.935 234.974 139.97C232.939 142.005 126.507 38.8391 126.507 38.8391Z" fill="url(#paint13_linear_1_2215)" shape-rendering="crispEdges"/>
</g>
<defs>
<filter id="filter0_f_1_2215" x="8" y="2" width="1672.69" height="905" filterUnits="userSpaceOnUse" color-interpolation-filters="sRGB">
<feFlood flood-opacity="0" result="BackgroundImageFix"/>
<feBlend mode="normal" in="SourceGraphic" in2="BackgroundImageFix" result="shape"/>
<feGaussianBlur stdDeviation="10.5" result="effect1_foregroundBlur_1_2215"/>
</filter>
<filter id="filter1_d_1_2215" x="1362" y="478" width="273.694" height="273.687" filterUnits="userSpaceOnUse" color-interpolation-filters="sRGB">
<feFlood flood-opacity="0" result="BackgroundImageFix"/>
<feColorMatrix in="SourceAlpha" type="matrix" values="0 0 0 0 0 0 0 0 0 0 0 0 0 0 0 0 0 0 127 0" result="hardAlpha"/>
<feOffset dx="4" dy="10"/>
<feGaussianBlur stdDeviation="16.5"/>
<feComposite in2="hardAlpha" operator="out"/>
<feColorMatrix type="matrix" values="0 0 0 0 0 0 0 0 0 0 0 0 0 0 0 0 0 0 0.25 0"/>
<feBlend mode="normal" in2="BackgroundImageFix" result="effect1_dropShadow_1_2215"/>
<feBlend mode="normal" in="SourceGraphic" in2="effect1_dropShadow_1_2215" result="shape"/>
</filter>
<filter id="filter2_d_1_2215" x="829" y="812" width="117.002" height="117" filterUnits="userSpaceOnUse" color-interpolation-filters="sRGB">
<feFlood flood-opacity="0" result="BackgroundImageFix"/>
<feColorMatrix in="SourceAlpha" type="matrix" values="0 0 0 0 0 0 0 0 0 0 0 0 0 0 0 0 0 0 127 0" result="hardAlpha"/>
<feOffset dx="4" dy="10"/>
<feGaussianBlur stdDeviation="16.5"/>
<feComposite in2="hardAlpha" operator="out"/>
<feColorMatrix type="matrix" values="0 0 0 0 0 0 0 0 0 0 0 0 0 0 0 0 0 0 0.25 0"/>
<feBlend mode="normal" in2="BackgroundImageFix" result="effect1_dropShadow_1_2215"/>
<feBlend mode="normal" in="SourceGraphic" in2="effect1_dropShadow_1_2215" result="shape"/>
</filter>
<filter id="filter3_d_1_2215" x="422" y="269" width="117.002" height="117" filterUnits="userSpaceOnUse" color-interpolation-filters="sRGB">
<feFlood flood-opacity="0" result="BackgroundImageFix"/>
<feColorMatrix in="SourceAlpha" type="matrix" values="0 0 0 0 0 0 0 0 0 0 0 0 0 0 0 0 0 0 127 0" result="hardAlpha"/>
<feOffset dx="4" dy="10"/>
<feGaussianBlur stdDeviation="16.5"/>
<feComposite in2="hardAlpha" operator="out"/>
<feColorMatrix type="matrix" values="0 0 0 0 0 0 0 0 0 0 0 0 0 0 0 0 0 0 0.25 0"/>
<feBlend mode="normal" in2="BackgroundImageFix" result="effect1_dropShadow_1_2215"/>
<feBlend mode="normal" in="SourceGraphic" in2="effect1_dropShadow_1_2215" result="shape"/>
</filter>
<filter id="filter4_d_1_2215" x="1423" y="611" width="273.694" height="273.687" filterUnits="userSpaceOnUse" color-interpolation-filters="sRGB">
<feFlood flood-opacity="0" result="BackgroundImageFix"/>
<feColorMatrix in="SourceAlpha" type="matrix" values="0 0 0 0 0 0 0 0 0 0 0 0 0 0 0 0 0 0 127 0" result="hardAlpha"/>
<feOffset dx="4" dy="10"/>
<feGaussianBlur stdDeviation="16.5"/>
<feComposite in2="hardAlpha" operator="out"/>
<feColorMatrix type="matrix" values="0 0 0 0 0 0 0 0 0 0 0 0 0 0 0 0 0 0 0.25 0"/>
<feBlend mode="normal" in2="BackgroundImageFix" result="effect1_dropShadow_1_2215"/>
<feBlend mode="normal" in="SourceGraphic" in2="effect1_dropShadow_1_2215" result="shape"/>
</filter>
<filter id="filter5_d_1_2215" x="0" y="134" width="273.694" height="273.687" filterUnits="userSpaceOnUse" color-interpolation-filters="sRGB">
<feFlood flood-opacity="0" result="BackgroundImageFix"/>
<feColorMatrix in="SourceAlpha" type="matrix" values="0 0 0 0 0 0 0 0 0 0 0 0 0 0 0 0 0 0 127 0" result="hardAlpha"/>
<feOffset dx="4" dy="10"/>
<feGaussianBlur stdDeviation="16.5"/>
<feComposite in2="hardAlpha" operator="out"/>
<feColorMatrix type="matrix" values="0 0 0 0 0 0 0 0 0 0 0 0 0 0 0 0 0 0 0.25 0"/>
<feBlend mode="normal" in2="BackgroundImageFix" result="effect1_dropShadow_1_2215"/>
<feBlend mode="normal" in="SourceGraphic" in2="effect1_dropShadow_1_2215" result="shape"/>
</filter>
<filter id="filter6_d_1_2215" x="151" y="216" width="207.005" height="207" filterUnits="userSpaceOnUse" color-interpolation-filters="sRGB">
<feFlood flood-opacity="0" result="BackgroundImageFix"/>
<feColorMatrix in="SourceAlpha" type="matrix" values="0 0 0 0 0 0 0 0 0 0 0 0 0 0 0 0 0 0 127 0" result="hardAlpha"/>
<feOffset dx="4" dy="10"/>
<feGaussianBlur stdDeviation="16.5"/>
<feComposite in2="hardAlpha" operator="out"/>
<feColorMatrix type="matrix" values="0 0 0 0 0 0 0 0 0 0 0 0 0 0 0 0 0 0 0.25 0"/>
<feBlend mode="normal" in2="BackgroundImageFix" result="effect1_dropShadow_1_2215"/>
<feBlend mode="normal" in="SourceGraphic" in2="effect1_dropShadow_1_2215" result="shape"/>
</filter>
<filter id="filter7_d_1_2215" x="90" y="0" width="176.004" height="176" filterUnits="userSpaceOnUse" color-interpolation-filters="sRGB">
<feFlood flood-opacity="0" result="BackgroundImageFix"/>
<feColorMatrix in="SourceAlpha" type="matrix" values="0 0 0 0 0 0 0 0 0 0 0 0 0 0 0 0 0 0 127 0" result="hardAlpha"/>
<feOffset dx="4" dy="10"/>
<feGaussianBlur stdDeviation="16.5"/>
<feComposite in2="hardAlpha" operator="out"/>
<feColorMatrix type="matrix" values="0 0 0 0 0 0 0 0 0 0 0 0 0 0 0 0 0 0 0.25 0"/>
<feBlend mode="normal" in2="BackgroundImageFix" result="effect1_dropShadow_1_2215"/>
<feBlend mode="normal" in="SourceGraphic" in2="effect1_dropShadow_1_2215" result="shape"/>
</filter>
<filter id="filter8_d_1_2215" x="1368" y="485" width="273.694" height="273.687" filterUnits="userSpaceOnUse" color-interpolation-filters="sRGB">
<feFlood flood-opacity="0" result="BackgroundImageFix"/>
<feColorMatrix in="SourceAlpha" type="matrix" values="0 0 0 0 0 0 0 0 0 0 0 0 0 0 0 0 0 0 127 0" result="hardAlpha"/>
<feOffset dx="4" dy="10"/>
<feGaussianBlur stdDeviation="16.5"/>
<feComposite in2="hardAlpha" operator="out"/>
<feColorMatrix type="matrix" values="0 0 0 0 0 0 0 0 0 0 0 0 0 0 0 0 0 0 0.25 0"/>
<feBlend mode="normal" in2="BackgroundImageFix" result="effect1_dropShadow_1_2215"/>
<feBlend mode="normal" in="SourceGraphic" in2="effect1_dropShadow_1_2215" result="shape"/>
</filter>
<filter id="filter9_d_1_2215" x="835" y="819" width="117.002" height="117" filterUnits="userSpaceOnUse" color-interpolation-filters="sRGB">
<feFlood flood-opacity="0" result="BackgroundImageFix"/>
<feColorMatrix in="SourceAlpha" type="matrix" values="0 0 0 0 0 0 0 0 0 0 0 0 0 0 0 0 0 0 127 0" result="hardAlpha"/>
<feOffset dx="4" dy="10"/>
<feGaussianBlur stdDeviation="16.5"/>
<feComposite in2="hardAlpha" operator="out"/>
<feColorMatrix type="matrix" values="0 0 0 0 0 0 0 0 0 0 0 0 0 0 0 0 0 0 0.25 0"/>
<feBlend mode="normal" in2="BackgroundImageFix" result="effect1_dropShadow_1_2215"/>
<feBlend mode="normal" in="SourceGraphic" in2="effect1_dropShadow_1_2215" result="shape"/>
</filter>
<filter id="filter10_d_1_2215" x="428" y="276" width="117.002" height="117" filterUnits="userSpaceOnUse" color-interpolation-filters="sRGB">
<feFlood flood-opacity="0" result="BackgroundImageFix"/>
<feColorMatrix in="SourceAlpha" type="matrix" values="0 0 0 0 0 0 0 0 0 0 0 0 0 0 0 0 0 0 127 0" result="hardAlpha"/>
<feOffset dx="4" dy="10"/>
<feGaussianBlur stdDeviation="16.5"/>
<feComposite in2="hardAlpha" operator="out"/>
<feColorMatrix type="matrix" values="0 0 0 0 0 0 0 0 0 0 0 0 0 0 0 0 0 0 0.25 0"/>
<feBlend mode="normal" in2="BackgroundImageFix" result="effect1_dropShadow_1_2215"/>
<feBlend mode="normal" in="SourceGraphic" in2="effect1_dropShadow_1_2215" result="shape"/>
</filter>
<filter id="filter11_d_1_2215" x="1429" y="618" width="273.694" height="273.687" filterUnits="userSpaceOnUse" color-interpolation-filters="sRGB">
<feFlood flood-opacity="0" result="BackgroundImageFix"/>
<feColorMatrix in="SourceAlpha" type="matrix" values="0 0 0 0 0 0 0 0 0 0 0 0 0 0 0 0 0 0 127 0" result="hardAlpha"/>
<feOffset dx="4" dy="10"/>
<feGaussianBlur stdDeviation="16.5"/>
<feComposite in2="hardAlpha" operator="out"/>
<feColorMatrix type="matrix" values="0 0 0 0 0 0 0 0 0 0 0 0 0 0 0 0 0 0 0.25 0"/>
<feBlend mode="normal" in2="BackgroundImageFix" result="effect1_dropShadow_1_2215"/>
<feBlend mode="normal" in="SourceGraphic" in2="effect1_dropShadow_1_2215" result="shape"/>
</filter>
<filter id="filter12_d_1_2215" x="6" y="141" width="273.694" height="273.687" filterUnits="userSpaceOnUse" color-interpolation-filters="sRGB">
<feFlood flood-opacity="0" result="BackgroundImageFix"/>
<feColorMatrix in="SourceAlpha" type="matrix" values="0 0 0 0 0 0 0 0 0 0 0 0 0 0 0 0 0 0 127 0" result="hardAlpha"/>
<feOffset dx="4" dy="10"/>
<feGaussianBlur stdDeviation="16.5"/>
<feComposite in2="hardAlpha" operator="out"/>
<feColorMatrix type="matrix" values="0 0 0 0 0 0 0 0 0 0 0 0 0 0 0 0 0 0 0.25 0"/>
<feBlend mode="normal" in2="BackgroundImageFix" result="effect1_dropShadow_1_2215"/>
<feBlend mode="normal" in="SourceGraphic" in2="effect1_dropShadow_1_2215" result="shape"/>
</filter>
<filter id="filter13_d_1_2215" x="157" y="223" width="207.005" height="207" filterUnits="userSpaceOnUse" color-interpolation-filters="sRGB">
<feFlood flood-opacity="0" result="BackgroundImageFix"/>
<feColorMatrix in="SourceAlpha" type="matrix" values="0 0 0 0 0 0 0 0 0 0 0 0 0 0 0 0 0 0 127 0" result="hardAlpha"/>
<feOffset dx="4" dy="10"/>
<feGaussianBlur stdDeviation="16.5"/>
<feComposite in2="hardAlpha" operator="out"/>
<feColorMatrix type="matrix" values="0 0 0 0 0 0 0 0 0 0 0 0 0 0 0 0 0 0 0.25 0"/>
<feBlend mode="normal" in2="BackgroundImageFix" result="effect1_dropShadow_1_2215"/>
<feBlend mode="normal" in="SourceGraphic" in2="effect1_dropShadow_1_2215" result="shape"/>
</filter>
<filter id="filter14_d_1_2215" x="96" y="7" width="176.004" height="176" filterUnits="userSpaceOnUse" color-interpolation-filters="sRGB">
<feFlood flood-opacity="0" result="BackgroundImageFix"/>
<feColorMatrix in="SourceAlpha" type="matrix" values="0 0 0 0 0 0 0 0 0 0 0 0 0 0 0 0 0 0 127 0" result="hardAlpha"/>
<feOffset dx="4" dy="10"/>
<feGaussianBlur stdDeviation="16.5"/>
<feComposite in2="hardAlpha" operator="out"/>
<feColorMatrix type="matrix" values="0 0 0 0 0 0 0 0 0 0 0 0 0 0 0 0 0 0 0.25 0"/>
<feBlend mode="normal" in2="BackgroundImageFix" result="effect1_dropShadow_1_2215"/>
<feBlend mode="normal" in="SourceGraphic" in2="effect1_dropShadow_1_2215" result="shape"/>
</filter>
<linearGradient id="paint0_linear_1_2215" x1="1400.9" y1="510.891" x2="1599.23" y2="709.222" gradientUnits="userSpaceOnUse">
<stop stop-color="#BA68C8"/>
<stop offset="0.8" stop-color="white"/>
<stop offset="1" stop-color="white" stop-opacity="0"/>
</linearGradient>
<linearGradient id="paint1_linear_1_2215" x1="860.431" y1="837.429" x2="909.133" y2="886.131" gradientUnits="userSpaceOnUse">
<stop stop-color="#BA68C8"/>
<stop offset="0.8" stop-color="white"/>
<stop offset="1" stop-color="white" stop-opacity="0"/>
</linearGradient>
<linearGradient id="paint2_linear_1_2215" x1="453.431" y1="294.429" x2="502.133" y2="343.131" gradientUnits="userSpaceOnUse">
<stop stop-color="#BA68C8"/>
<stop offset="0.8" stop-color="white"/>
<stop offset="1" stop-color="white" stop-opacity="0"/>
</linearGradient>
<linearGradient id="paint3_linear_1_2215" x1="1461.9" y1="643.891" x2="1660.23" y2="842.222" gradientUnits="userSpaceOnUse">
<stop stop-color="#BA68C8"/>
<stop offset="0.8" stop-color="white"/>
<stop offset="1" stop-color="white" stop-opacity="0"/>
</linearGradient>
<linearGradient id="paint4_linear_1_2215" x1="38.8978" y1="166.891" x2="237.229" y2="365.222" gradientUnits="userSpaceOnUse">
<stop stop-color="#BA68C8"/>
<stop offset="0.8" stop-color="white"/>
<stop offset="1" stop-color="white" stop-opacity="0"/>
</linearGradient>
<linearGradient id="paint5_linear_1_2215" x1="186.72" y1="245.715" x2="321.368" y2="380.363" gradientUnits="userSpaceOnUse">
<stop stop-color="#BA68C8"/>
<stop offset="0.8" stop-color="white"/>
<stop offset="1" stop-color="white" stop-opacity="0"/>
</linearGradient>
<linearGradient id="paint6_linear_1_2215" x1="124.242" y1="28.2385" x2="229.287" y2="133.283" gradientUnits="userSpaceOnUse">
<stop stop-color="#BA68C8"/>
<stop offset="0.8" stop-color="white"/>
<stop offset="1" stop-color="white" stop-opacity="0"/>
</linearGradient>
<linearGradient id="paint7_linear_1_2215" x1="1406.9" y1="517.891" x2="1605.23" y2="716.222" gradientUnits="userSpaceOnUse">
<stop stop-color="#BA68C8"/>
<stop offset="0.8" stop-color="white"/>
<stop offset="1" stop-color="white" stop-opacity="0"/>
</linearGradient>
<linearGradient id="paint8_linear_1_2215" x1="866.431" y1="844.429" x2="915.133" y2="893.131" gradientUnits="userSpaceOnUse">
<stop stop-color="#BA68C8"/>
<stop offset="0.8" stop-color="white"/>
<stop offset="1" stop-color="white" stop-opacity="0"/>
</linearGradient>
<linearGradient id="paint9_linear_1_2215" x1="459.431" y1="301.429" x2="508.133" y2="350.131" gradientUnits="userSpaceOnUse">
<stop stop-color="#BA68C8"/>
<stop offset="0.8" stop-color="white"/>
<stop offset="1" stop-color="white" stop-opacity="0"/>
</linearGradient>
<linearGradient id="paint10_linear_1_2215" x1="1467.9" y1="650.891" x2="1666.23" y2="849.222" gradientUnits="userSpaceOnUse">
<stop stop-color="#BA68C8"/>
<stop offset="0.8" stop-color="white"/>
<stop offset="1" stop-color="white" stop-opacity="0"/>
</linearGradient>
<linearGradient id="paint11_linear_1_2215" x1="44.8978" y1="173.891" x2="243.229" y2="372.222" gradientUnits="userSpaceOnUse">
<stop stop-color="#BA68C8"/>
<stop offset="0.8" stop-color="white"/>
<stop offset="1" stop-color="white" stop-opacity="0"/>
</linearGradient>
<linearGradient id="paint12_linear_1_2215" x1="192.72" y1="252.715" x2="327.368" y2="387.363" gradientUnits="userSpaceOnUse">
<stop stop-color="#BA68C8"/>
<stop offset="0.8" stop-color="white"/>
<stop offset="1" stop-color="white" stop-opacity="0"/>
</linearGradient>
<linearGradient id="paint13_linear_1_2215" x1="130.242" y1="35.2385" x2="235.287" y2="140.283" gradientUnits="userSpaceOnUse">
<stop stop-color="#BA68C8"/>
<stop offset="0.8" stop-color="white"/>
<stop offset="1" stop-color="white" stop-opacity="0"/>
</linearGradient>
</defs>
</svg>
